<?xml version="1.0" encoding="utf-8"?>
<!-- Generator: Adobe Illustrator 23.0.2, SVG Export Plug-In . SVG Version: 6.00 Build 0)  -->
<svg version="1.1" id="Layer_1" xmlns="http://www.w3.org/2000/svg" xmlns:xlink="http://www.w3.org/1999/xlink" x="0px" y="0px"
	 viewBox="0 0 401.72 140.96" style="enable-background:new 0 0 401.72 140.96;" xml:space="preserve">
<style type="text/css">
	.st0{fill:#2E3192;}
	.st1{fill-rule:evenodd;clip-rule:evenodd;fill:#2E3192;}
	.st2{fill:#FFFFFF;}
</style>
<rect class="st0" width="401.72" height="140.96"/>
<rect class="st0" width="401.72" height="140.96"/>
<path class="st1" d="M41.63,58.36c0-6.65,12.22-0.95,12.22-13.24v-0.4c0-4.24-3.93-8.16-8.28-8.16h-1.2c-3.51,0-7.88,4.08-7.88,6.61
	v3.88c0,3.25,3.35,5.04,3.94,6.61h-5.9c-7.15,0-12.72-5.05-15.02-5.05h-0.79c-1.35,0-1.52,0.29-2.77,0.38
	c-0.24,1.07-0.77,1.59-0.77,2.34c0,4.38,5.25,3.44,8.83,4.54c3.5,1.05,5.47,3.45,8.12,5.2c5.75,0,7.91,0.67,7.91,6.63v0.39
	c0,1.81-0.92,2.72-2.77,2.72h-2.75v5.44c0,2.86,8.97,3.89,12.62,3.89c3.61,0,10.25-2.13,10.25-5.05v-1.56c0-1.51-0.29-2.89-0.8-3.89
	l19.34,0.78c1.49,0.07,2.77-1.49,2.77-3.12v-2.32c0-1.07-0.2-1.08-0.4-1.95l-10.65,0.88l-3.96-0.12c-3.63,0-5.18-1.28-8.17-0.25
	c-1.44,0.48-5.86,2.19-6.82,2.19h-0.41C44.31,65.75,41.63,62.23,41.63,58.36"/>
<path class="st2" d="M41.63,58.36h-1.35c-0.02-1.02,0.25-1.96,0.73-2.71c0.44-0.66,1.04-1.13,1.64-1.48
	c1.07-0.59,2.24-0.9,3.38-1.22C47.75,52.5,49.38,52,50.51,51c0.56-0.53,1.05-1.15,1.42-2.08c0.35-0.92,0.58-2.16,0.58-3.79v-0.4
	c0.01-1.71-0.8-3.44-2.12-4.74c-1.3-1.29-3.05-2.11-4.81-2.09h-1.2c-0.6,0-1.35,0.18-2.13,0.55c-1.16,0.53-2.34,1.44-3.16,2.39
	c-0.41,0.49-0.75,0.97-0.96,1.39c-0.21,0.42-0.29,0.76-0.28,0.96v3.88c0,0.58,0.15,1.09,0.4,1.59c0.36,0.76,1.01,1.48,1.68,2.19
	c0.34,0.34,0.67,0.71,0.98,1.09c0.31,0.36,0.61,0.78,0.8,1.3l0.66,1.79h-7.83c-3.91,0-7.28-1.38-9.93-2.67
	c-1.32-0.66-2.47-1.31-3.39-1.75c-0.43-0.22-0.85-0.39-1.13-0.51c-0.32-0.11-0.52-0.14-0.56-0.13h-0.79c-0.58,0-0.79,0.05-1.11,0.12
	c-0.32,0.07-0.82,0.2-1.53,0.26l-0.13-1.32l1.32,0.3c-0.15,0.69-0.41,1.21-0.57,1.54c-0.18,0.34-0.18,0.45-0.18,0.49
	c0,0.41,0.06,0.72,0.14,0.95c0.15,0.37,0.36,0.59,0.76,0.84c0.6,0.35,1.7,0.59,2.95,0.76c1.25,0.15,2.67,0.29,4.03,0.7
	c1.96,0.59,3.49,1.55,4.81,2.56c1.32,1,2.45,2.01,3.67,2.81l-0.76,1.11v-1.32c1.47,0,2.73,0.04,3.87,0.2
	c0.86,0.14,1.64,0.36,2.35,0.72c1.08,0.53,1.94,1.48,2.38,2.67c0.47,1.2,0.65,2.61,0.65,4.36v0.39c0,0.55-0.07,1.09-0.24,1.61
	c-0.26,0.77-0.78,1.45-1.5,1.88c-0.7,0.4-1.53,0.56-2.38,0.56h-1.42v4.12l0.09,0.14c0.16,0.24,0.77,0.64,1.65,0.97
	c1.31,0.49,3.14,0.89,4.92,1.11c1.78,0.26,3.5,0.35,4.62,0.35c1.54,0.01,4.02-0.49,5.94-1.32c0.96-0.42,1.8-0.9,2.3-1.37l0.54-0.62
	l0.13-0.41v-1.56c0-1.34-0.28-2.55-0.67-3.32l-0.96-1.99l21.58,0.87h0.04c0.21,0.01,0.53-0.12,0.82-0.49
	c0.29-0.32,0.5-0.83,0.48-1.3v-2.32c-0.01-0.48-0.03-0.55-0.06-0.67c-0.03-0.14-0.17-0.47-0.29-0.99l1.31-0.29l0.12,1.32l-10.73,0.9
	l-4.03-0.11l0.04-1.34v1.34c-1.41,0-2.55-0.19-3.49-0.36c-0.96-0.16-1.69-0.31-2.4-0.31c-0.56,0-1.12,0.09-1.84,0.32
	c-0.67,0.23-2.15,0.78-3.58,1.3c-0.71,0.23-1.42,0.48-2.03,0.66l-0.85,0.24l-0.8,0.1h-0.41c-2.41,0-4.5-1.09-5.89-2.72
	c-1.4-1.63-2.15-3.77-2.15-6.01h2.71c0,1.64,0.56,3.18,1.52,4.29c0.95,1.1,2.22,1.77,3.82,1.77h0.41v0.24l-0.03-0.24h0.03v0.24
	l-0.03-0.24c0.06,0,0.54-0.09,1.06-0.28c0.82-0.24,1.9-0.61,2.89-0.98c1-0.35,1.9-0.7,2.47-0.89c0.97-0.32,1.87-0.45,2.71-0.45
	c1.05,0,1.96,0.19,2.87,0.34c0.9,0.17,1.84,0.3,3.02,0.3h0.02l3.9,0.12l11.74-0.97l0.25,1.11c0.09,0.36,0.15,0.48,0.26,0.83
	c0.11,0.36,0.17,0.82,0.17,1.42v2.32c-0.01,1.13-0.41,2.16-1.09,3.01c-0.66,0.8-1.7,1.44-2.91,1.44h-0.19l0.07-1.33l-0.04,1.33
	l-19.34-0.78l0.05-1.32l1.22-0.58c0.6,1.25,0.92,2.77,0.94,4.47v1.56c0,0.62-0.2,1.2-0.48,1.71c-0.49,0.86-1.25,1.52-2.11,2.08
	c-1.29,0.84-2.88,1.46-4.48,1.91c-1.6,0.44-3.21,0.7-4.55,0.7c-1.95,0-5.15-0.26-7.99-0.92c-1.43-0.31-2.76-0.73-3.83-1.32
	c-0.55-0.3-1.06-0.67-1.46-1.14c-0.39-0.48-0.71-1.14-0.7-1.85v-6.79h4.11c0.35,0.01,0.61-0.02,0.79-0.09l0.42-0.3
	c0.1-0.15,0.21-0.47,0.21-0.97v-0.39c0-1.42-0.15-2.45-0.36-3.14c-0.17-0.53-0.38-0.85-0.63-1.11c-0.35-0.36-0.87-0.63-1.8-0.81
	c-0.92-0.18-2.18-0.24-3.77-0.24h-0.4l-0.35-0.22c-1.42-0.94-2.6-2.01-3.81-2.91c-1.2-0.91-2.41-1.67-3.97-2.14
	c-0.75-0.23-1.67-0.36-2.67-0.5c-1.48-0.2-3.07-0.35-4.5-1.03c-0.71-0.34-1.42-0.84-1.89-1.59c-0.49-0.74-0.72-1.67-0.72-2.68
	c0-0.7,0.25-1.24,0.41-1.61c0.19-0.37,0.31-0.65,0.41-1.03l0.22-0.93l0.99-0.09c0.5-0.05,0.72-0.11,1.13-0.21
	c0.4-0.09,0.96-0.19,1.72-0.19h0.79c0.54,0,1.01,0.14,1.48,0.29c0.81,0.3,1.65,0.74,2.61,1.24c2.85,1.51,6.67,3.52,10.92,3.52h5.9
	v1.32l-1.26,0.47c-0.03-0.1-0.24-0.42-0.6-0.83c-0.55-0.6-1.36-1.37-2.09-2.38c-0.71-1.01-1.35-2.3-1.35-3.88v-3.88
	c0.02-1.02,0.41-1.94,0.93-2.81c0.84-1.3,2.09-2.52,3.52-3.47c1.43-0.96,3.07-1.66,4.78-1.67h1.2c2.6,0,4.98,1.16,6.72,2.88
	c1.75,1.74,2.9,4.09,2.9,6.62v0.4c0,1.65-0.2,3.03-0.59,4.23c-0.66,2.09-1.95,3.52-3.37,4.42c-2.14,1.33-4.5,1.66-6.1,2.21
	c-0.81,0.27-1.37,0.57-1.68,0.89l-0.34,0.54c-0.08,0.23-0.13,0.52-0.13,0.94H41.63z"/>
<path class="st1" d="M83.85,52.53c0-2.46,3.55-5.08,3.55-6.23v-1.17c0-3.36-4.43-7.8-7.9-7.8h-1.58c-4.29,0-8.27,3.96-8.27,8.19
	v1.54c0,4.69,3.54,5.7,3.54,7.01c0,0.23-0.56,0.86-0.79,1.18c-5.4,0-9.96,1.19-14.6,1.15c-3.4,0-13.81-1.21-13.81,1.96
	c0,2.06,1.41,5.06,3.14,5.06h2c1.66,0,4.35-1.86,6.16-2.47c1.74-0.59,5.57,0.13,8.04,0.13c4.05,0,7.57-0.4,11.04-0.38
	c4.77,0.03,6.71-0.14,6.71,4.68v3.1c0,1.3-3.03,4.29-4.34,4.29h-2.36l-5.91-0.46c0.84,10.18,21.68,5.03,21.68-1.11v-3.11l-0.92-8.16
	c8.63-0.02,15.15-4.05,15.15-12.49c-1.71,0.45-3.55,3.75-3.95,5.46c-1.4,0.11-5.68,1.6-6.3,2.35c-0.95,1.17-2.57,3.88-4.75,3.88
	H87.8c-1.43,0-3.96-2.68-3.96-4.66V52.53z"/>
<path class="st2" d="M83.85,52.53h-1.35c0-0.94,0.33-1.76,0.72-2.5c0.59-1.07,1.4-1.99,2.01-2.75c0.31-0.36,0.57-0.7,0.72-0.92
	l0.13-0.22v-0.01l0.47,0.16h-0.48l0.01-0.16l0.47,0.16h-0.48v-1.17c0-0.55-0.21-1.28-0.61-2.02c-0.58-1.13-1.61-2.29-2.75-3.13
	c-1.12-0.84-2.34-1.33-3.21-1.32h-1.58c-1.72,0-3.49,0.82-4.8,2.12c-1.31,1.31-2.13,3.04-2.13,4.75v1.54
	c0.01,1.01,0.19,1.75,0.44,2.37c0.41,0.93,0.99,1.57,1.6,2.15c0.3,0.3,0.61,0.59,0.89,0.94l0.42,0.63c0.11,0.26,0.22,0.58,0.22,0.92
	c-0.03,0.32-0.1,0.49-0.16,0.61l-0.27,0.48l-0.37,0.51L73.5,56l-0.4,0.58h-0.7c-5.14,0-9.63,1.15-14.45,1.17H57.8
	c-1.59-0.02-4.35-0.24-6.98-0.24c-1.69-0.01-3.35,0.11-4.39,0.37c-0.54,0.13-0.9,0.32-1.03,0.43l-0.05,0.06l-0.02,0.01l-0.05-0.02
	l0.06,0.01l0,0.01l-0.05-0.02l0.06,0.01c-0.01,0.73,0.29,1.86,0.76,2.65c0.21,0.4,0.48,0.72,0.69,0.9l0.35,0.18h2
	c0.16,0.01,0.52-0.07,0.94-0.22c0.66-0.23,1.47-0.64,2.31-1.05c0.84-0.42,1.64-0.86,2.48-1.14c0.76-0.24,1.53-0.28,2.38-0.3
	c1.04,0,2.14,0.09,3.2,0.2c1.08,0.08,2.1,0.17,2.89,0.17c3.88,0,7.32-0.4,10.83-0.4h0.22c1.18,0.01,2.21,0,3.14,0.07
	c0.71,0.04,1.36,0.15,2,0.36c0.47,0.15,0.93,0.4,1.33,0.74c0.62,0.51,1.02,1.23,1.26,2.02c0.23,0.81,0.31,1.72,0.31,2.82v3.1
	c0,0.42-0.1,0.75-0.23,1.06c-0.23,0.55-0.56,1.02-0.94,1.51c-0.58,0.72-1.29,1.41-2.02,1.96c-0.37,0.28-0.74,0.53-1.14,0.73
	c-0.4,0.19-0.8,0.34-1.36,0.35h-2.42l-5.96-0.45l0.1-1.32l1.34-0.11c0.08,0.86,0.3,1.52,0.65,2.08c0.51,0.8,1.32,1.42,2.41,1.84
	c1.1,0.42,2.46,0.64,3.94,0.64c2.81,0,6.01-0.78,8.36-1.95c1.18-0.58,2.15-1.26,2.77-1.91c0.63-0.67,0.87-1.24,0.86-1.69v-3.03
	l-1.1-9.57h1.52c4.12-0.02,7.6-0.99,9.98-2.82c1.21-0.9,2.14-2.02,2.79-3.39c0.65-1.38,1.03-3.01,1.03-4.95h1.35l0.34,1.3
	l-0.68,0.47c-0.48,0.45-1.03,1.21-1.45,1.97c-0.43,0.76-0.75,1.56-0.85,2.02l-0.22,0.94l-0.98,0.09c-0.17,0-0.67,0.1-1.23,0.26
	c-0.85,0.23-1.91,0.58-2.77,0.95c-0.42,0.17-0.8,0.34-1.07,0.49l-0.29,0.17l-0.03,0.04l-0.32-0.34l0.37,0.26l-0.05,0.08l-0.32-0.34
	l0.37,0.26l0.01-0.01l-0.01,0.01c-0.42,0.52-1.09,1.55-2.01,2.48c-0.46,0.46-0.96,0.92-1.6,1.29c-0.62,0.36-1.37,0.62-2.21,0.62
	H87.8c-0.81-0.01-1.4-0.31-1.97-0.67c-0.85-0.55-1.62-1.33-2.23-2.23c-0.6-0.92-1.09-1.94-1.11-3.1v-1.94h2.7v1.94
	c-0.01,0.22,0.08,0.59,0.28,0.99c0.3,0.61,0.82,1.28,1.34,1.73l0.71,0.51l0.23,0.1l0.05,0.02h0.01l-0.01,0.14v-0.14h0.01l-0.01,0.14
	v-0.14h1.56c0.27,0,0.53-0.09,0.87-0.27c0.47-0.28,1.02-0.8,1.5-1.39c0.5-0.58,0.94-1.2,1.33-1.72l-0.01,0.02l0.01-0.02l0.72-0.6
	c0.41-0.25,0.91-0.5,1.47-0.74c0.84-0.35,1.79-0.7,2.68-0.96c0.92-0.28,1.7-0.48,2.38-0.54l0.1,1.32l-1.32-0.3
	c0.26-1.09,0.87-2.4,1.68-3.61c0.4-0.6,0.85-1.19,1.37-1.69c0.51-0.49,1.09-0.91,1.87-1.13l1.7-0.44v1.71
	c0,2.29-0.46,4.31-1.29,6.08c-1.26,2.65-3.39,4.62-6.04,5.87c-2.64,1.28-5.77,1.86-9.17,1.86v-1.32l1.33-0.16l0.95,8.23v3.19
	c0,1.36-0.66,2.54-1.58,3.51c-1.39,1.46-3.44,2.57-5.73,3.39c-2.32,0.82-4.91,1.31-7.38,1.31c-2.31,0-4.53-0.41-6.35-1.52
	c-0.91-0.55-1.71-1.3-2.29-2.23c-0.58-0.91-0.95-2.03-1.05-3.26l-0.13-1.54l7.43,0.55h2.32v0.36l-0.04-0.36h0.04v0.36l-0.04-0.36
	v0.03v-0.03v0.03v-0.03c0.04,0,0.4-0.15,0.75-0.4c0.55-0.4,1.21-1.01,1.67-1.58l0.51-0.77l0.11-0.22v-0.02l0.29,0.04h-0.29v-0.04
	l0.29,0.04h-0.29v-3.1c0-1.12-0.13-1.88-0.28-2.28c-0.12-0.32-0.25-0.45-0.4-0.57c-0.2-0.18-0.64-0.34-1.45-0.4
	c-0.79-0.1-1.89-0.09-3.23-0.1h-0.21c-3.3,0-6.78,0.39-10.83,0.39c-0.97,0-2.03-0.09-3.1-0.18c-1.07-0.1-2.14-0.2-2.99-0.2
	c-0.7,0-1.26,0.09-1.49,0.18c-0.72,0.22-1.84,0.83-2.98,1.39c-0.57,0.28-1.16,0.55-1.77,0.77c-0.59,0.22-1.2,0.38-1.86,0.39h-2
	c-0.82,0-1.55-0.37-2.07-0.82c-0.82-0.68-1.37-1.6-1.78-2.57c-0.39-0.97-0.64-2.01-0.64-3c0-0.43,0.1-0.86,0.3-1.24
	c0.35-0.63,0.92-1.06,1.49-1.34c0.88-0.43,1.86-0.62,2.94-0.75c1.08-0.14,2.26-0.18,3.44-0.18c2.76,0,5.61,0.24,6.98,0.24h0.15
	c4.33,0.02,8.89-1.15,14.45-1.17v1.34l-1.1-0.76l0.49-0.65l0.16-0.21l0.44,0.24l-0.47-0.19l0.03-0.05l0.44,0.24l-0.47-0.19
	l1.04,0.39h-1.12l0.08-0.39l1.04,0.39h-1.12h0.53l-0.5,0.17l-0.02-0.17h0.53l-0.5,0.17l0.29-0.09l-0.27,0.11l-0.02-0.03l0.29-0.09
	l-0.27,0.11h0.02h-0.02h0.02h-0.02c-0.02-0.04-0.25-0.3-0.6-0.64c-0.52-0.51-1.27-1.24-1.89-2.32c-0.63-1.07-1.1-2.48-1.1-4.25
	v-1.54c0.01-2.54,1.18-4.89,2.94-6.62c1.75-1.73,4.12-2.89,6.69-2.89h1.58c1.17,0,2.29,0.35,3.33,0.89
	c1.57,0.82,2.98,2.06,4.07,3.49c1.07,1.42,1.83,3.03,1.85,4.73v1.17c0,0.48-0.15,0.82-0.3,1.11c-0.27,0.48-0.6,0.9-0.97,1.36
	c-0.54,0.66-1.16,1.38-1.6,2.07c-0.45,0.68-0.69,1.32-0.68,1.69H83.85z"/>
<path class="st1" d="M58.2,31.9h-1.18c-3.52,0-4.4-1.86-6.5-3.31l-5.64,5.33l0.29,0.3c5.81,0,11.06,4.98,11.06,10.51v1.95
	c0,1.67-0.47,2.11-0.79,3.43l4.73,0.47c1.97,0.23,6.71-0.59,6.71-2.33l-0.09-0.4l0.09-9.73c1.98-2.95,5.45-7.03,9.93-7.43
	l-1.26-3.43l-9.06-0.83C64.61,29.18,62.88,31.9,58.2,31.9"/>
<path class="st2" d="M58.2,31.9v1.32h-1.18c-1.99,0-3.48-0.59-4.56-1.35c-1.08-0.77-1.81-1.59-2.7-2.2l0.77-1.08l0.94,0.96
	l-5.64,5.33l-0.93-0.96l0.97-0.92l0.3,0.31l-0.98,0.92V32.9c3.3,0,6.37,1.4,8.63,3.54c2.26,2.15,3.76,5.1,3.76,8.28v1.95
	c0,0.96-0.14,1.67-0.32,2.25c-0.21,0.57-0.35,0.93-0.5,1.5l-1.31-0.32l0.12-1.32l4.75,0.48h0.02l0.57,0.01
	c0.95,0.01,2.35-0.18,3.39-0.53c0.52-0.17,0.94-0.38,1.13-0.53l0.12-0.1l0.01-0.03l0.04,0.03l-0.04-0.01v-0.01l0.04,0.03l-0.04-0.01
	l0.29,0.14h-0.32l0.04-0.14l0.29,0.14h-0.32h1.36l-1.33,0.26l-0.07-0.39l-0.04-0.13l0.09-10.28l0.23-0.32
	c1.03-1.54,2.45-3.38,4.26-4.94c1.81-1.55,4.04-2.85,6.67-3.07l0.11,1.32l-1.27,0.44l-0.97-2.63l-8.21-0.74l0.13-1.33l1.12,0.74
	c-0.94,1.36-1.89,2.85-3.35,4.04c-1.46,1.2-3.46,2-6.06,2v-2.66c2.08-0.01,3.3-0.56,4.34-1.4c1.06-0.84,1.89-2.08,2.82-3.48
	l0.45-0.64l10.72,0.98l2.14,5.83l-1.74,0.16c-1.84,0.15-3.59,1.11-5.14,2.43c-1.53,1.33-2.83,3-3.78,4.42l-1.13-0.74l1.34,0.01
	l-0.07,9.59l0.05,0.26l0.02,0.13v0.14c0,0.46-0.15,0.9-0.37,1.23c-0.39,0.61-0.91,0.97-1.46,1.26c-0.82,0.44-1.79,0.72-2.75,0.91
	c-0.96,0.2-1.92,0.3-2.75,0.3l-0.89-0.05l0.16-1.32l-0.13,1.32l-6.27-0.61l0.36-1.48c0.19-0.78,0.42-1.28,0.54-1.67
	c0.12-0.41,0.2-0.73,0.2-1.46v-1.95c0.02-2.34-1.12-4.65-2.94-6.37c-1.8-1.73-4.25-2.81-6.76-2.81H44.6l-0.7-0.71l-0.92-0.97
	l7.39-7.01l0.9,0.63c1.21,0.84,1.96,1.69,2.73,2.2c0.76,0.53,1.48,0.85,3,0.86h1.18V31.9z"/>
<path class="st1" d="M54.25,96.92h3.54c0.98-0.67,3.17-1.3,3.17-2.73v-2.73c0-1.75-3-9.69-3.56-12.06
	c-3.45,0.79-3.84,2.73-10.26,2.73h-0.77L36.1,80.94c-0.76-0.1-1.97,8.49-1.97,9.73v1.57c0,1.65,3.63,2.32,5.53,2.32h1.17
	c1.96,0,3.54-1.92,4.34-3.11l0.58-6.25l1.38,0.03c1.97,0,2.93,4.4,3.14,6.27C51.03,98.3,51.23,94.32,54.25,96.92"/>
<path class="st2" d="M54.25,96.92v-1.34h3.54v1.34l-0.76-1.09c0.34-0.26,0.71-0.42,1.06-0.61c0.5-0.26,0.99-0.52,1.26-0.75
	l0.23-0.24l0.02-0.04v-2.73c0.02-0.04-0.03-0.31-0.09-0.65c-0.26-1.22-0.99-3.5-1.72-5.67c-0.35-1.11-0.71-2.18-1.02-3.12
	c-0.3-0.93-0.54-1.73-0.69-2.32l1.31-0.3l0.32,1.29c-0.75,0.18-1.32,0.4-1.89,0.67c-0.85,0.41-1.78,0.95-3.11,1.38
	c-1.35,0.43-3.08,0.72-5.59,0.72h-0.85l-10.34-1.18h-0.02l0.16-1.22v1.23l-0.16-0.01l0.16-1.22v1.23v-1.2l0.67,1.01l-0.67,0.2v-1.2
	l0.67,1.01l-0.46-0.68l0.74,0.43l-0.28,0.26l-0.46-0.68l0.74,0.43l-0.02,0.03l-0.21,0.6c-0.31,1.07-0.65,2.96-0.89,4.66
	c-0.14,0.84-0.26,1.66-0.32,2.3c-0.08,0.65-0.12,1.16-0.12,1.26v1.57h-0.16l0.13-0.1l0.03,0.1h-0.16l0.13-0.1l0.1,0.1
	c0.22,0.2,0.95,0.55,1.78,0.71c0.81,0.19,1.73,0.3,2.34,0.3h1.17l0.83-0.2c0.45-0.19,0.91-0.57,1.34-1.01
	c0.41-0.43,0.78-0.91,1.05-1.32l1.11,0.74l-1.34-0.11l0.69-7.49l2.65,0.05l-0.04,1.33v-1.34c0.52,0,1,0.15,1.37,0.39
	c0.68,0.4,1.12,0.97,1.48,1.57c0.53,0.89,0.89,1.93,1.14,2.91c0.26,0.98,0.42,1.92,0.49,2.6c0.18,1.67,0.34,2.69,0.48,3.15
	l0.09,0.27l-0.19,0.09l0.18-0.13l0.01,0.03l-0.19,0.09l0.18-0.13l-0.52,0.39l0.32-0.55l0.2,0.16l-0.52,0.39l0.32-0.55l-0.3,0.51
	l0.13-0.57l0.17,0.06l-0.3,0.51l0.13-0.57l-0.03,0.16l0.02-0.16h0.01l-0.03,0.16l0.02-0.16l0.32,0.01c0.31,0.03,0.8,0.09,1.31,0.3
	c0.53,0.21,1.1,0.55,1.71,1.07L54.25,96.92v-1.34V96.92l-0.88,0.99c-0.64-0.53-0.96-0.62-1.2-0.68c-0.18-0.04-0.34-0.03-0.73-0.08
	l-0.53-0.14c-0.38-0.14-0.76-0.45-0.97-0.79c-0.33-0.52-0.46-1-0.6-1.7c-0.14-0.71-0.25-1.63-0.41-2.88
	c-0.08-0.85-0.36-2.36-0.82-3.52c-0.21-0.58-0.49-1.09-0.72-1.35l-0.25-0.22l-0.01-0.01l0.01-0.08v0.09l-0.01-0.01l0.01-0.08v0.09
	l-0.15-0.01l-0.51,5.35l-0.18,0.3c-0.44,0.66-1.09,1.5-1.98,2.27c-0.45,0.37-0.95,0.72-1.53,0.99c-0.58,0.27-1.25,0.45-1.96,0.45
	h-1.17c-1.12,0-2.58-0.2-3.93-0.61c-0.65-0.22-1.3-0.51-1.86-0.95c-0.28-0.24-0.55-0.51-0.75-0.87c-0.22-0.35-0.34-0.78-0.34-1.22
	v-1.57c0-0.24,0.02-0.51,0.06-0.88c0.13-1.3,0.43-3.54,0.8-5.54c0.19-0.99,0.38-1.9,0.61-2.63c0.1-0.37,0.21-0.69,0.37-0.99
	l0.34-0.51l0.4-0.3l0.72-0.2l0.21,0.01l-0.18,1.32l0.16-1.32l10.18,1.16h0.7c1.55,0,2.68-0.11,3.56-0.28
	c1.34-0.26,2.13-0.65,3.03-1.09c0.89-0.44,1.91-0.98,3.36-1.3l1.32-0.3l0.31,1.28c0.11,0.51,0.41,1.46,0.76,2.54
	c0.53,1.64,1.22,3.67,1.78,5.48c0.28,0.9,0.54,1.75,0.72,2.48c0.09,0.34,0.17,0.69,0.22,0.99l0.1,0.88v2.73
	c0,0.68-0.29,1.34-0.66,1.77c-0.53,0.64-1.21,1.03-1.78,1.33c-0.56,0.31-1.1,0.56-1.29,0.71l-0.36,0.24h-4.47l-0.38-0.33
	L54.25,96.92z"/>
<path class="st1" d="M77.92,93.01c0-3.8-0.14-9.36,1.99-10.89l2.42,5.82c1.17,0.12,1.34,0.41,2.71,0.41h3.15
	c1.21,0,3.17-0.74,3.17-1.95c0-2.45-1.98-4.81-1.98-7.78v-1.95c-2.22,0.59-6.2,3.5-9.87,3.5h-5.52c-2.5,0-4.15-2.19-5.92-2.33v2.73
	c0,3.72-1.98,8.46-1.98,12.06c1.98,1.04,3.22,1.95,6.32,1.95h1.18C75.72,94.57,76.67,93.84,77.92,93.01"/>
<path class="st2" d="M77.92,93.01h-1.33c0-0.48-0.01-0.96-0.01-1.49c0.01-1.83,0.02-3.89,0.3-5.77c0.14-0.92,0.35-1.8,0.68-2.62
	c0.32-0.8,0.79-1.55,1.55-2.09l1.37-1l3.08,7.38l-1.24,0.52l0.15-1.33c0.7,0.07,1.16,0.22,1.46,0.28c0.3,0.08,0.5,0.11,1.1,0.12
	h3.15c0.34,0,1-0.14,1.4-0.37l0.41-0.28L90,86.33l0.15,0.06h-0.16L90,86.33l0.15,0.06h-0.16c0.01-0.86-0.37-1.94-0.89-3.23
	c-0.5-1.28-1.07-2.77-1.07-4.56v-1.95h1.34l0.36,1.29c-0.39,0.09-1.01,0.36-1.73,0.71c-1.08,0.51-2.41,1.21-3.85,1.8
	c-1.43,0.56-2.99,1.05-4.65,1.05h-5.52c-1.67,0-2.94-0.73-3.93-1.31c-0.5-0.29-0.92-0.57-1.28-0.76c-0.36-0.17-0.64-0.26-0.81-0.26
	l0.11-1.33h1.34v2.73c0,2.08-0.54,4.27-1.01,6.37c-0.51,2.12-0.97,4.15-0.97,5.7h-1.35l0.64-1.17c1.03,0.53,1.79,0.98,2.59,1.3
	c0.8,0.3,1.67,0.49,3.1,0.5h1.18c0.92-0.01,1.47-0.15,1.97-0.36c0.49-0.22,0.97-0.54,1.63-0.99L77.92,93.01h-1.33H77.92l0.75,1.11
	c-0.58,0.4-1.23,0.84-2.05,1.21c-0.82,0.35-1.82,0.57-3.04,0.57H72.4c-1.68,0-2.96-0.26-4.07-0.67c-1.08-0.42-1.93-0.93-2.87-1.42
	l-0.72-0.38v-0.8c0.02-2.03,0.53-4.18,1.03-6.29c0.47-2.1,0.96-4.14,0.95-5.77v-4.17l1.45,0.12c0.72,0.05,1.31,0.3,1.84,0.58
	c0.78,0.39,1.45,0.87,2.11,1.21c0.65,0.33,1.25,0.53,1.86,0.53h5.52c1.48,0.01,3.24-0.61,4.91-1.41c0.84-0.38,1.65-0.78,2.41-1.17
	c0.76-0.36,1.48-0.69,2.21-0.88l1.68-0.42v3.66c0,1.18,0.43,2.36,0.92,3.6c0.47,1.24,1.05,2.59,1.07,4.18
	c0,0.66-0.28,1.24-0.64,1.67c-0.56,0.61-1.21,0.98-1.88,1.22c-0.66,0.26-1.34,0.38-2,0.38h-3.15c-0.79,0.01-1.34-0.09-1.74-0.2
	c-0.42-0.11-0.62-0.16-1.1-0.22l-0.8-0.08l-2.73-6.55l1.25-0.5l0.77,1.06c-0.16,0.13-0.42,0.44-0.63,0.96
	c-0.32,0.76-0.54,1.96-0.65,3.27c-0.13,1.32-0.13,2.75-0.13,4.1v2.21l-0.61,0.39L77.92,93.01z"/>
<path class="st1" d="M14.4,36.57v4.27l3.95,5.46c2.58,0,3.81,1.15,5.13,1.15c4.05,0,7.89-4.13,7.89-8.16v-2.34
	c0-3.58-3.97-7.39-8.29-7.39h-0.79C16.78,29.55,16.22,33.98,14.4,36.57"/>
<path class="st2" d="M14.4,36.57h1.35v3.85l3.69,5.11l-1.09,0.77v-1.32c1.48-0.01,2.65,0.34,3.49,0.65
	c0.44,0.16,0.77,0.29,1.05,0.39l0.58,0.12c1.54,0.01,3.22-0.82,4.49-2.16c1.27-1.32,2.06-3.1,2.06-4.68v-2.34
	c0-1.29-0.77-2.86-2.1-4.06c-1.31-1.21-3.09-2.02-4.84-2.01h-0.79c-1.2,0-2.02,0.24-2.66,0.58c-0.95,0.51-1.61,1.33-2.21,2.4
	c-0.62,1.07-1.12,2.32-1.91,3.47L14.4,36.57h1.35H14.4l-1.1-0.76c0.76-1.07,1.37-2.83,2.59-4.5c0.6-0.82,1.39-1.63,2.47-2.19
	c1.07-0.57,2.38-0.89,3.94-0.89h0.79c2.56,0.01,4.94,1.11,6.68,2.7c1.74,1.61,2.94,3.73,2.96,6.02v2.34c0,2.43-1.13,4.75-2.8,6.51
	c-1.66,1.76-3.93,2.98-6.44,3c-0.53,0-1.01-0.11-1.42-0.25c-1.25-0.41-2.09-0.92-3.71-0.92h-0.7l-4.59-6.36v-5.12l0.24-0.34
	L14.4,36.57z"/>
<path class="st1" d="M88.58,33.44V35c0,3.96,3.45,7.78,7.51,7.78h0.77c2.38,0,4.74-3.5,5.94-4.28c0-2.45,0.8-2.39,0.8-3.5
	c0-4.59-2.83-9.75-7.11-9.75C91.71,25.25,88.58,28.7,88.58,33.44"/>
<path class="st2" d="M88.58,33.44h1.35V35c0,1.58,0.71,3.25,1.87,4.47c1.16,1.23,2.7,1.99,4.29,1.99h0.77c0.26,0,0.63-0.1,1.08-0.38
	c0.67-0.38,1.42-1.1,2.12-1.8c0.35-0.36,0.67-0.71,1-1.04c0.32-0.32,0.62-0.59,0.99-0.86l0.75,1.11h-1.35c0-0.69,0.06-1.23,0.15-1.7
	c0.14-0.69,0.4-1.19,0.52-1.44l0.12-0.36c0-2.02-0.65-4.25-1.73-5.86c-0.53-0.8-1.17-1.46-1.85-1.89c-0.67-0.43-1.38-0.66-2.17-0.66
	c-2.05,0.01-3.63,0.71-4.77,1.88c-1.1,1.18-1.78,2.89-1.78,4.96h-2.69c0-2.65,0.89-5.04,2.53-6.77c1.63-1.73,4.01-2.75,6.71-2.73
	c1.35-0.01,2.6,0.41,3.65,1.08c1.57,1.03,2.75,2.59,3.56,4.34c0.81,1.76,1.25,3.73,1.25,5.64c0,0.43-0.08,0.84-0.22,1.15
	c-0.19,0.47-0.3,0.64-0.39,0.9c-0.08,0.25-0.17,0.64-0.17,1.46v0.7l-0.6,0.41c-0.11,0.05-0.47,0.39-0.87,0.82
	c-0.63,0.64-1.43,1.51-2.35,2.23c-0.47,0.38-0.98,0.72-1.54,1c-0.57,0.26-1.21,0.44-1.92,0.44h-0.77c-2.48,0-4.7-1.15-6.25-2.83
	c-1.59-1.66-2.59-3.92-2.61-6.28v-1.56H88.58z"/>
<path class="st1" d="M32.15,70.42c-1.98-2.67-9.38-5.51-9.86-11.29c3.15,0.26,7.33,9.74,13.8,9.74h1.58v-1.56
	c0-2.84-0.89-4.29-3.93-4.29c-3.76,0.01-3.7-0.77-5.86-2.4c-4.52-3.34-5.86-2.82-11.93-4.22v1.58l0.87,11.27
	c3.43,0.93,4.7,2.36,9.79,2.36h0.79C29.49,71.62,30.82,71.13,32.15,70.42"/>
<path class="st2" d="M32.15,70.42l-1.08,0.79c-0.33-0.45-1.09-1.1-2.04-1.81c-1.43-1.07-3.3-2.31-4.88-3.91
	c-1.59-1.61-2.98-3.66-3.2-6.24l-0.14-1.55l1.59,0.11c0.73,0.06,1.33,0.36,1.88,0.71c0.95,0.63,1.77,1.53,2.69,2.5
	c1.33,1.46,2.77,3.15,4.33,4.42c0.77,0.65,1.56,1.17,2.36,1.55c0.81,0.35,1.61,0.56,2.45,0.56h0.24v-0.24
	c0-0.64-0.05-1.17-0.14-1.56c-0.17-0.6-0.36-0.82-0.63-1.03c-0.28-0.19-0.83-0.38-1.82-0.38h-0.02l0.02-1.32v1.32h-0.03
	c-0.98,0-1.75-0.04-2.42-0.17c-1-0.16-1.81-0.55-2.41-1.02c-0.61-0.46-1.07-0.9-1.82-1.46c-2.2-1.63-3.44-2.21-4.94-2.63
	c-1.5-0.42-3.38-0.64-6.46-1.36l0.29-1.3h1.35v1.52l0.87,11.23l-1.34,0.1l0.37-1.29c1.84,0.51,3.08,1.13,4.35,1.55
	c1.27,0.43,2.66,0.75,5.08,0.75h0.79c1.88-0.01,2.86-0.38,4.1-1.01L32.15,70.42l-1.08,0.79L32.15,70.42l0.64,1.2
	c-1.44,0.76-3.08,1.31-5.37,1.31h-0.79c-2.66,0-4.47-0.38-5.97-0.89c-1.49-0.51-2.61-1.07-4.17-1.5l-0.93-0.25l-0.92-12.26v-3.28
	l1.64,0.38c2.97,0.67,4.79,0.87,6.6,1.38c1.82,0.5,3.49,1.34,5.82,3.07c0.6,0.43,1.03,0.8,1.36,1.1c0.53,0.44,0.79,0.61,1.19,0.76
	c0.44,0.16,1.16,0.26,2.48,0.26h0.03v0.37v-0.37v0.37v-0.37c0.87,0,1.64,0.09,2.35,0.34c0.54,0.2,1.01,0.47,1.42,0.83
	c0.59,0.54,0.99,1.27,1.22,2.01c0.22,0.76,0.29,1.57,0.29,2.44v2.9H36.1c-1.96,0-3.69-0.74-5.19-1.71
	c-2.25-1.49-4.05-3.59-5.59-5.28c-0.75-0.85-1.45-1.57-2.03-2.07l-0.74-0.55l-0.38-0.13l0.11-1.34l1.34-0.11
	c0.1,1.18,0.54,2.21,1.24,3.17c1.02,1.47,2.63,2.77,4.23,3.95c0.79,0.58,1.58,1.15,2.29,1.71c0.72,0.57,1.35,1.12,1.86,1.78
	l0.92,1.26l-1.38,0.72L32.15,70.42z"/>
<path class="st1" d="M32.25,77.83l-0.1-4.66c-2.21,0.05-2.19,0.77-4.33,0.77h-2.37c-1.08,0-4.71-0.89-5.93-1.16
	c-0.53,6.22-3.34,15.57,4.75,15.57h3.15c1.66,0,2.59-1.15,4.27-1.58L32.25,77.83z"/>
<path class="st2" d="M32.25,77.83l-1.34,0.02l-0.1-4.67l1.35-0.01l0.04,1.32c-0.97,0.03-1.24,0.15-1.79,0.32
	c-0.53,0.22-1.38,0.48-2.59,0.45h-2.37c-0.44-0.01-0.91-0.06-1.46-0.16c-1.6-0.28-3.87-0.83-4.77-1.04l0.3-1.29l1.33,0.11
	c-0.22,2.84-0.89,6.15-0.88,8.84c-0.01,1.72,0.3,3.11,0.87,3.94c0.3,0.42,0.66,0.72,1.18,0.96c0.54,0.24,1.25,0.4,2.25,0.4h3.15
	c0.5-0.01,0.89-0.15,1.5-0.47c0.6-0.3,1.38-0.79,2.45-1.05l0.32,1.28l-1.34-0.06l0.56-8.95L32.25,77.83l-1.34,0.02L32.25,77.83
	l1.35,0.08l-0.63,9.92L32,88.07c-0.59,0.15-1.12,0.44-1.81,0.82c-0.69,0.37-1.6,0.79-2.77,0.78h-3.15c-1.28,0-2.4-0.2-3.36-0.63
	c-1.45-0.64-2.44-1.81-2.95-3.11c-0.53-1.31-0.68-2.74-0.68-4.21c0.01-3.07,0.69-6.43,0.92-9.06l0.14-1.53l1.5,0.34
	c0.63,0.14,1.81,0.43,2.99,0.68c0.6,0.12,1.17,0.26,1.64,0.33c0.49,0.07,0.88,0.13,0.99,0.11h2.37c0.92,0,1.16-0.11,1.68-0.28
	c0.55-0.21,1.38-0.47,2.62-0.49l1.35-0.03l0.14,6.06l-0.02,0.06L32.25,77.83z"/>
<path class="st1" d="M59.78,13.99h-3.55c-2.58,1.77-5.53,2.62-5.53,7.39v1.95c0,3.5,3.64,6.62,7.1,6.62c3.3,0,7.11-3.21,7.11-6.22
	V20.2C64.91,16.73,61.47,15.42,59.78,13.99"/>
<path class="st2" d="M59.78,13.99v1.32h-3.55v-1.32l0.76,1.09c-1.43,0.95-2.71,1.6-3.55,2.43c-0.42,0.4-0.74,0.84-0.98,1.44
	c-0.24,0.6-0.4,1.37-0.4,2.43v1.95c-0.02,1.29,0.67,2.61,1.81,3.65c1.11,1.01,2.62,1.64,3.93,1.64c1.21,0.01,2.75-0.64,3.91-1.66
	c0.58-0.49,1.05-1.07,1.38-1.63c0.32-0.58,0.48-1.13,0.48-1.59V20.2c0-0.65-0.16-1.13-0.41-1.6c-0.36-0.68-1.03-1.3-1.82-1.87
	c-0.79-0.59-1.67-1.09-2.46-1.76L59.78,13.99v1.32V13.99l0.88-1.01c0.67,0.58,2.01,1.3,3.22,2.37c0.6,0.55,1.2,1.19,1.64,2
	c0.47,0.8,0.73,1.78,0.73,2.86v3.52c0,1.01-0.31,2-0.81,2.89c-0.75,1.33-1.88,2.43-3.22,3.29c-1.34,0.82-2.84,1.38-4.42,1.38
	c-2.14-0.01-4.19-0.94-5.76-2.35c-1.56-1.41-2.67-3.39-2.69-5.6v-1.95c0-1.33,0.21-2.44,0.6-3.42c0.57-1.44,1.58-2.44,2.59-3.19
	c1-0.74,2.04-1.27,2.92-1.88l0.34-0.23h4.48l0.38,0.32L59.78,13.99z"/>
<path class="st1" d="M77.52,23.32v2.72c0,2.86,3.82,6.61,6.72,6.61h1.18c1.81,0,1.68-7.01,6.71-8.16c0-4.31-3-8.57-6.71-8.57
	C81.21,15.93,77.52,19.23,77.52,23.32"/>
<path class="st2" d="M77.52,23.32h1.36v2.72c0,0.42,0.14,1,0.48,1.61c0.49,0.94,1.35,1.9,2.29,2.6c0.94,0.72,1.95,1.1,2.59,1.08
	h1.18v0.65l-0.31-0.58l0.31-0.07v0.65l-0.31-0.58l0.22,0.4l-0.29-0.34l0.07-0.05l0.22,0.4l-0.29-0.34l0.09,0.1l-0.1-0.1h0.01
	l0.09,0.1l-0.1-0.1c0.03,0,0.33-0.53,0.58-1.23c0.43-1.03,0.93-2.51,1.84-3.87c0.46-0.71,1.02-1.37,1.74-1.94
	c0.72-0.56,1.6-1,2.63-1.24l0.31,1.31h-1.35c0-1.86-0.65-3.75-1.69-5.1c-0.52-0.69-1.11-1.23-1.75-1.59
	c-0.61-0.36-1.25-0.55-1.92-0.55c-1.75,0-3.4,0.7-4.6,1.8c-1.2,1.13-1.94,2.63-1.94,4.27h-2.7c0-2.45,1.11-4.64,2.81-6.22
	c1.68-1.55,3.98-2.5,6.43-2.5c1.2,0,2.32,0.34,3.3,0.92c1.46,0.85,2.64,2.19,3.46,3.77c0.82,1.55,1.29,3.36,1.29,5.21v1.04
	l-1.05,0.24c-0.95,0.23-1.61,0.68-2.19,1.34c-0.89,0.99-1.46,2.44-1.97,3.73c-0.26,0.67-0.49,1.28-0.84,1.86
	c-0.18,0.28-0.38,0.55-0.7,0.82c-0.32,0.26-0.79,0.49-1.31,0.48h-1.18c-1.03-0.01-1.98-0.32-2.9-0.8c-1.35-0.71-2.59-1.78-3.52-3.02
	c-0.93-1.23-1.62-2.63-1.64-4.15v-2.72H77.52z"/>
<path class="st1" d="M24.27,27.6c4.18,0.34,8.74,4.17,9.08,8.17c2.82-0.05,5.91-3.48,5.91-6.22v-2.34c0-4.04-3.36-7.41-7.49-7.41
	C27.33,19.81,24.61,23.6,24.27,27.6"/>
<path class="st2" d="M24.27,27.6l0.1-1.32c2.47,0.21,4.87,1.37,6.77,3.04c1.89,1.67,3.31,3.88,3.53,6.33l-1.33,0.11l-0.03-1.33
	c0.41,0,0.94-0.14,1.49-0.43c0.81-0.44,1.64-1.2,2.21-2.04c0.59-0.85,0.9-1.76,0.9-2.42v-2.34c0-1.65-0.69-3.17-1.81-4.27
	c-1.12-1.12-2.64-1.8-4.34-1.8c-1.82,0-3.19,0.75-4.27,1.95c-1.08,1.19-1.74,2.88-1.88,4.62L24.27,27.6l0.1-1.32L24.27,27.6
	l-1.34-0.11c0.19-2.27,1.04-4.46,2.53-6.16c1.5-1.69,3.69-2.85,6.3-2.85c4.89,0,8.83,3.95,8.86,8.73v2.34
	c-0.04,1.87-0.99,3.61-2.28,5.02c-0.66,0.7-1.4,1.32-2.24,1.77c-0.84,0.46-1.75,0.75-2.73,0.78l-1.26,0.02L32,35.89
	c-0.12-1.55-1.12-3.26-2.65-4.59c-1.49-1.32-3.46-2.24-5.19-2.38l-1.33-0.11l0.11-1.32L24.27,27.6z"/>
<path class="st1" d="M102.46,66.15c-2.21,0.49-3.92,1.96-6.37,1.96h-2.76l-0.95,8.55L92.52,79l0.45,3.5l3.12,0.01
	c3.07,0,3.71-0.75,5.42-1.96L102.46,66.15z"/>
<path class="st2" d="M102.46,66.15l0.3,1.3c-0.9,0.2-1.81,0.63-2.86,1.08c-1.05,0.44-2.32,0.9-3.81,0.9h-1.56l-0.8,7.24l0.16,2.2
	l0.28,2.29l1.93,0.01h0c1.43-0.01,2.12-0.17,2.66-0.41c0.54-0.22,1.09-0.66,1.99-1.3l0.77,1.09l-1.34-0.07l0.96-14.4L102.46,66.15
	l0.3,1.3L102.46,66.15l1.35,0.1l-0.99,15.02l-0.52,0.38c-0.82,0.56-1.46,1.09-2.44,1.55c-0.98,0.42-2.14,0.65-3.77,0.63h-4.31
	l-0.6-4.69l-0.16-2.52l1.08-9.84h3.98c0.96,0,1.8-0.28,2.76-0.67c0.96-0.41,2.02-0.95,3.31-1.24l1.77-0.38l-0.11,1.77L102.46,66.15z
	"/>
<path class="st1" d="M95.28,44.73v1.17c-2.7,0.22-8.68,3.83-8.68,7.03v1.94c0,1.2,1.16,1.54,2.38,1.54h0.39
	c1.58,0,3.03-2.36,3.15-3.88c8.03-0.17,6.98-6.56,10.27-7.4v-3.5C100.39,43.22,99.55,44.73,95.28,44.73"/>
<path class="st2" d="M95.28,44.73h1.35v2.4l-1.23,0.1c-0.43,0.03-1.21,0.24-2.06,0.63c-1.27,0.57-2.73,1.47-3.78,2.46
	c-0.52,0.49-0.96,1-1.22,1.45c-0.27,0.47-0.39,0.86-0.37,1.16v1.94l0.01,0.05l-0.08,0.01l0.06-0.03l0.02,0.03l-0.08,0.01l0.06-0.03
	l0.04,0.03c0.13,0.07,0.53,0.16,0.99,0.16h0.39l0.39-0.16c0.29-0.2,0.67-0.63,0.95-1.14c0.28-0.49,0.45-1.05,0.47-1.37l0.11-1.2
	l1.21-0.02c1.83-0.04,3.01-0.42,3.86-0.92c1.28-0.74,1.95-1.86,2.69-3.13c0.37-0.61,0.72-1.28,1.22-1.88
	c0.52-0.6,1.24-1.18,2.19-1.43l0.34,1.3h-1.34v-3.5h1.34l0.74,1.1c-1.09,0.7-1.9,1.51-3.13,2.2c-1.25,0.7-2.84,1.15-5.12,1.13V44.73
	h1.35H95.28v-1.32c1.98-0.02,2.94-0.33,3.79-0.8c0.85-0.45,1.65-1.23,2.96-2.11l2.1-1.37v7l-1,0.27l-0.53,0.28
	c-0.31,0.24-0.66,0.76-1.04,1.46c-0.62,1.03-1.34,2.44-2.72,3.62c-1.39,1.19-3.43,2.04-6.3,2.09l-0.04-1.33l1.36,0.1
	c-0.11,1.11-0.58,2.22-1.3,3.2c-0.35,0.49-0.79,0.94-1.31,1.31c-0.52,0.34-1.16,0.61-1.91,0.61h-0.39c-0.75-0.01-1.52-0.09-2.3-0.5
	c-0.37-0.2-0.74-0.51-1-0.93c-0.28-0.43-0.42-0.94-0.42-1.45v-1.94c0.02-1.23,0.55-2.29,1.26-3.22c1.07-1.4,2.6-2.57,4.16-3.48
	c0.79-0.44,1.57-0.82,2.34-1.11c0.76-0.27,1.48-0.48,2.18-0.53l0.1,1.32h-1.34v-2.48h1.34V44.73z"/>
<path class="st1" d="M42.02,27.6c-0.38,4.68-3.77,10.15-8.27,10.52v1.55c0,2.08-1.98,5.85-1.98,5.85c0,1.65,2.33,5.69,3.95,5.83
	c-0.71-1.3-1.58-2.72-1.58-4.67v-1.95c0-7.86,15-15.57,15-18.29v-0.39c0-0.64-0.25-1.17-0.8-1.17C47.47,24.87,43.78,27.2,42.02,27.6
	"/>
<path class="st2" d="M42.02,27.6l1.35,0.11c-0.22,2.6-1.24,5.32-2.85,7.55c-0.8,1.08-1.77,2.07-2.88,2.81
	c-1.11,0.74-2.4,1.26-3.78,1.36l-0.11-1.32h1.34v1.55c0,0.72-0.16,1.42-0.36,2.15c-0.61,2.13-1.74,4.26-1.76,4.3l-1.2-0.59h1.35
	c-0.02,0.1,0.07,0.59,0.29,1.1c0.31,0.79,0.85,1.75,1.4,2.44c0.28,0.36,0.55,0.64,0.76,0.8l0.24,0.16h0.04l-0.06,0.18l0.02-0.18
	h0.04l-0.06,0.18l0.02-0.18l-0.1,1.32l-1.19,0.63c-0.65-1.23-1.73-2.94-1.73-5.3v-1.95c0-2.39,1.11-4.59,2.6-6.58
	c2.26-2.98,5.48-5.65,8.13-7.82c1.33-1.08,2.49-2.06,3.27-2.81c0.39-0.39,0.69-0.72,0.86-0.95l0.12-0.23l0.03-0.02l0.33,0.11h-0.36
	l0.03-0.11l0.33,0.11h-0.36v-0.39l0-0.18v-0.01l0.22-0.08l-0.21,0.14l-0.01-0.06l0.22-0.08l-0.21,0.14l0.55-0.32L48,26.1l-0.23-0.19
	l0.55-0.32L48,26.1l0.33-0.55v0.66L48,26.1l0.33-0.55v0.66v-0.69l0.1,0.69h-0.1v-0.69l0.1,0.69l-0.01-0.17l0.03,0.16l-0.02,0.01
	l-0.01-0.17l0.03,0.16c-0.07,0.01-0.47,0.16-0.92,0.37c-0.7,0.33-1.64,0.81-2.55,1.26c-0.92,0.44-1.81,0.86-2.65,1.05L42.02,27.6
	l1.35,0.11L42.02,27.6l-0.3-1.3c0.27-0.05,0.77-0.24,1.34-0.5c0.86-0.39,1.86-0.92,2.75-1.35c0.45-0.23,0.87-0.42,1.24-0.58
	l0.58-0.22l0.7-0.11c0.37,0,0.73,0.09,1.05,0.29c0.49,0.27,0.76,0.72,0.91,1.1c0.14,0.38,0.19,0.74,0.19,1.11v0.39
	c-0.01,0.47-0.15,0.86-0.33,1.19c-0.33,0.61-0.8,1.11-1.34,1.68c-0.99,0.97-2.33,2.04-3.77,3.25c-2.18,1.78-4.64,3.85-6.5,5.97
	c-0.93,1.08-1.7,2.16-2.24,3.2c-0.53,1.07-0.82,2.07-0.82,3.01v1.95c0,1.53,0.7,2.7,1.42,4.05l1.15,2.16l-2.45-0.22
	c-0.47-0.05-0.86-0.22-1.21-0.39c-0.58-0.34-1.06-0.82-1.51-1.34c-0.66-0.8-1.25-1.76-1.68-2.67c-0.23-0.47-0.42-0.95-0.53-1.4
	c-0.14-0.45-0.24-0.9-0.24-1.34v-0.29L30.52,45l0.04-0.07l0.01-0.01c0.03-0.05,0.51-0.97,0.97-2.11c0.24-0.56,0.46-1.18,0.61-1.75
	c0.18-0.55,0.26-1.08,0.26-1.38V36.9l1.22-0.11c0.87-0.07,1.71-0.38,2.5-0.9c1.21-0.81,2.29-2.11,3.1-3.61
	c0.81-1.51,1.33-3.23,1.46-4.78l0.08-0.98l0.96-0.22L42.02,27.6z"/>
<path class="st1" d="M95.69,65.75c2.55,0,8.68-3.06,8.68-5.05v-1.94c0-1.05-0.19-1.09-0.4-1.96c-6.19,4.1-2.49,3.01-11.45,5.06v3.89
	H95.69z"/>
<path class="st2" d="M95.69,65.75v-1.32c0.36,0,1.14-0.14,1.97-0.43c1.28-0.43,2.77-1.16,3.86-1.9c0.54-0.38,0.98-0.76,1.23-1.06
	L103,60.7l0.03-0.05l0.19,0.05h-0.2l0.01-0.05l0.19,0.05h-0.2v-1.94c0-0.47-0.03-0.54-0.07-0.67c-0.03-0.14-0.16-0.46-0.29-0.99
	l1.31-0.3l0.74,1.11c-1.51,1.01-2.4,1.67-3.06,2.17c-0.5,0.37-0.87,0.66-1.3,0.94c-0.33,0.21-0.68,0.37-1.07,0.52
	c-1.19,0.45-2.67,0.75-6.45,1.61l-0.32-1.3h1.36v2.56h1.82v2.67h-4.52v-6.27l1.05-0.25c2.23-0.52,3.68-0.82,4.66-1.09
	c0.73-0.15,1.18-0.3,1.49-0.42l0.61-0.32c0.61-0.39,1.58-1.3,4.23-3.03l1.63-1.07l0.43,1.87c0.09,0.36,0.15,0.48,0.26,0.84
	c0.11,0.36,0.19,0.82,0.18,1.41v1.94c-0.02,0.6-0.21,1.09-0.46,1.48c-0.48,0.71-1.11,1.3-1.86,1.85c-1.13,0.82-2.52,1.55-3.88,2.11
	c-0.68,0.28-1.35,0.51-2,0.67c-0.63,0.17-1.24,0.28-1.83,0.28V65.75z"/>
<path class="st1" d="M69.65,38.9c2.72-1.82,4.29-3.89,9.08-3.89h0.39c4.37,0,5.92,2.73,8.4,4.25l-1.3-4.64h-2.76
	c-1.63,0-3.87-1.68-5.13-2.34C75.64,34.04,69.96,35.1,69.65,38.9"/>
<path class="st2" d="M69.65,38.9l-0.76-1.11c1.27-0.83,2.36-1.82,3.85-2.67c1.49-0.85,3.38-1.46,5.98-1.44h0.39
	c2.46-0.02,4.31,0.81,5.67,1.79c1.4,0.98,2.38,2.01,3.44,2.66l-0.72,1.12l-1.3,0.37l-1.03-3.68h-1.73c-0.65,0-1.23-0.16-1.79-0.35
	c-0.82-0.3-1.6-0.74-2.29-1.15c-0.69-0.4-1.29-0.8-1.68-1l0.63-1.17l0.75,1.11c-0.8,0.51-1.72,0.92-2.64,1.35
	c-1.38,0.63-2.82,1.24-3.83,1.94c-0.5,0.37-0.9,0.74-1.16,1.11c-0.26,0.38-0.41,0.74-0.45,1.21L69.65,38.9l-0.76-1.11L69.65,38.9
	l-1.35-0.12c0.11-1.26,0.7-2.36,1.46-3.17c1.17-1.24,2.71-2.01,4.15-2.67c1.46-0.66,2.85-1.22,3.67-1.78l0.67-0.44l0.72,0.38
	c0.73,0.39,1.59,0.96,2.44,1.43c0.43,0.23,0.85,0.45,1.2,0.58c0.38,0.12,0.68,0.19,0.86,0.18h3.79l2.48,8.91l-2.92-1.82
	c-1.43-0.89-2.45-1.97-3.56-2.73c-1.11-0.76-2.24-1.3-4.12-1.3h-0.39c-2.2,0.01-3.48,0.44-4.64,1.09c-1.16,0.64-2.21,1.6-3.7,2.59
	l-2.32,1.52l0.23-2.75L69.65,38.9z"/>
<polygon class="st1" points="66.88,53.67 66.88,51.35 66.92,51.79 54.28,52.79 52.68,54.2 "/>
<polygon class="st2" points="66.88,53.67 65.52,53.67 65.52,51.35 68.22,51.25 68.26,51.69 68.36,53.02 54.83,54.08 53.58,55.2 
	52.68,54.2 52.62,52.87 66.83,52.36 66.88,53.67 65.52,53.67 66.88,53.67 66.93,55 48.98,55.66 53.73,51.51 66.8,50.47 66.92,51.79 
	65.58,51.9 65.54,51.46 66.88,51.35 68.22,51.35 68.22,54.96 66.93,55 "/>
<polygon class="st1" points="107.53,43.18 107.53,40.06 105.53,37.1 105.15,37.33 105.07,41.24 105.54,44.73 106.63,44.69 "/>
<polygon class="st2" points="107.53,43.18 106.18,43.18 106.18,40.46 104.4,37.82 105.53,37.1 106.28,38.19 105.91,38.43 
	105.15,37.33 106.51,37.37 106.42,41.18 106.89,44.55 105.54,44.73 105.49,43.41 105.85,43.39 106.36,42.51 107.53,43.18 
	106.18,43.18 107.53,43.18 108.68,43.85 107.43,45.97 104.38,46.12 103.72,41.33 103.82,36.61 104.79,35.98 105.91,35.24 
	108.87,39.65 108.87,43.53 108.68,43.85 "/>
<polygon class="st1" points="26.72,49.17 26.65,49.74 31.69,51.52 32,51.24 30.14,47.36 "/>
<polygon class="st2" points="26.72,49.17 28.06,49.3 28,49.87 26.65,49.74 27.11,48.47 32.15,50.27 31.69,51.52 30.77,50.57 
	31.07,50.28 32,51.24 30.77,51.81 29.53,49.2 27.36,50.34 26.72,49.17 28.06,49.3 26.72,49.17 26.09,48 30.75,45.54 33.63,51.53 
	32.03,53.05 25.2,50.63 25.39,49.02 25.45,48.31 26.09,48 "/>
<path class="st1" d="M41.63,58.36c0-6.65,12.22-0.95,12.22-13.24v-0.4c0-4.24-3.93-8.16-8.28-8.16h-1.2c-3.51,0-7.88,4.08-7.88,6.61
	v3.88c0,3.25,3.35,5.04,3.94,6.61h-5.9c-7.15,0-12.72-5.05-15.02-5.05h-0.79c-1.35,0-1.52,0.29-2.77,0.38
	c-0.24,1.07-0.77,1.59-0.77,2.34c0,4.38,5.25,3.44,8.83,4.54c3.5,1.05,5.47,3.45,8.12,5.2c5.75,0,7.91,0.67,7.91,6.63v0.39
	c0,1.81-0.92,2.72-2.77,2.72h-2.75v5.44c0,2.86,8.97,3.89,12.62,3.89c3.61,0,10.25-2.13,10.25-5.05v-1.56c0-1.51-0.29-2.89-0.8-3.89
	l19.34,0.78c1.49,0.07,2.77-1.49,2.77-3.12v-2.32c0-1.07-0.2-1.08-0.4-1.95l-10.65,0.88l-3.96-0.12c-3.63,0-5.18-1.28-8.17-0.25
	c-1.44,0.48-5.86,2.19-6.82,2.19h-0.41C44.31,65.75,41.63,62.23,41.63,58.36"/>
<path class="st1" d="M83.85,52.53c0-2.46,3.55-5.08,3.55-6.23v-1.17c0-3.36-4.43-7.8-7.9-7.8h-1.58c-4.29,0-8.27,3.96-8.27,8.19
	v1.54c0,4.69,3.54,5.7,3.54,7.01c0,0.23-0.56,0.86-0.79,1.18c-5.4,0-9.96,1.19-14.6,1.15c-3.4,0-13.81-1.21-13.81,1.96
	c0,2.06,1.41,5.06,3.14,5.06h2c1.66,0,4.35-1.86,6.16-2.47c1.74-0.59,5.57,0.13,8.04,0.13c4.05,0,7.57-0.4,11.04-0.38
	c4.77,0.03,6.71-0.14,6.71,4.68v3.1c0,1.3-3.03,4.29-4.34,4.29h-2.36l-5.91-0.46c0.84,10.18,21.68,5.03,21.68-1.11v-3.11l-0.92-8.16
	c8.63-0.02,15.15-4.05,15.15-12.49c-1.71,0.45-3.55,3.75-3.95,5.46c-1.4,0.11-5.68,1.6-6.3,2.35c-0.95,1.17-2.57,3.88-4.75,3.88
	H87.8c-1.43,0-3.96-2.68-3.96-4.66V52.53z"/>
<path class="st1" d="M58.2,31.9h-1.18c-3.52,0-4.4-1.86-6.5-3.31l-5.64,5.33l0.29,0.3c5.81,0,11.06,4.98,11.06,10.51v1.95
	c0,1.67-0.47,2.11-0.79,3.43l4.73,0.47c1.97,0.23,6.71-0.59,6.71-2.33l-0.09-0.4l0.09-9.73c1.98-2.95,5.45-7.03,9.93-7.43
	l-1.26-3.43l-9.06-0.83C64.61,29.18,62.88,31.9,58.2,31.9"/>
<path class="st1" d="M54.25,96.92h3.54c0.98-0.67,3.17-1.3,3.17-2.73v-2.73c0-1.75-3-9.69-3.56-12.06
	c-3.45,0.79-3.84,2.73-10.26,2.73h-0.77L36.1,80.94c-0.76-0.1-1.97,8.49-1.97,9.73v1.57c0,1.65,3.63,2.32,5.53,2.32h1.17
	c1.96,0,3.54-1.92,4.34-3.11l0.58-6.25l1.38,0.03c1.97,0,2.93,4.4,3.14,6.27C51.03,98.3,51.23,94.32,54.25,96.92"/>
<path class="st1" d="M77.92,93.01c0-3.8-0.14-9.36,1.99-10.89l2.42,5.82c1.17,0.12,1.34,0.41,2.71,0.41h3.15
	c1.21,0,3.17-0.74,3.17-1.95c0-2.45-1.98-4.81-1.98-7.78v-1.95c-2.22,0.59-6.2,3.5-9.87,3.5h-5.52c-2.5,0-4.15-2.19-5.92-2.33v2.73
	c0,3.72-1.98,8.46-1.98,12.06c1.98,1.04,3.22,1.95,6.32,1.95h1.18C75.72,94.57,76.67,93.84,77.92,93.01"/>
<path class="st1" d="M14.4,36.57v4.27l3.95,5.46c2.58,0,3.81,1.15,5.13,1.15c4.05,0,7.89-4.13,7.89-8.16v-2.34
	c0-3.58-3.97-7.39-8.29-7.39h-0.79C16.78,29.55,16.22,33.98,14.4,36.57"/>
<path class="st1" d="M88.58,33.44V35c0,3.96,3.45,7.78,7.51,7.78h0.77c2.38,0,4.74-3.5,5.94-4.28c0-2.45,0.8-2.39,0.8-3.5
	c0-4.59-2.83-9.75-7.11-9.75C91.71,25.25,88.58,28.7,88.58,33.44"/>
<path class="st1" d="M32.15,70.42c-1.98-2.67-9.38-5.51-9.86-11.29c3.15,0.26,7.33,9.74,13.8,9.74h1.58v-1.56
	c0-2.84-0.89-4.29-3.93-4.29c-3.76,0.01-3.7-0.77-5.86-2.4c-4.52-3.34-5.86-2.82-11.93-4.22v1.58l0.87,11.27
	c3.43,0.93,4.7,2.36,9.79,2.36h0.79C29.49,71.62,30.82,71.13,32.15,70.42"/>
<path class="st1" d="M32.25,77.83l-0.1-4.66c-2.21,0.05-2.19,0.77-4.33,0.77h-2.37c-1.08,0-4.71-0.89-5.93-1.16
	c-0.53,6.22-3.34,15.57,4.75,15.57h3.15c1.66,0,2.59-1.15,4.27-1.58L32.25,77.83z"/>
<path class="st1" d="M59.78,13.99h-3.55c-2.58,1.77-5.53,2.62-5.53,7.39v1.95c0,3.5,3.64,6.62,7.1,6.62c3.3,0,7.11-3.21,7.11-6.22
	V20.2C64.91,16.73,61.47,15.42,59.78,13.99"/>
<path class="st1" d="M77.52,23.32v2.72c0,2.86,3.82,6.61,6.72,6.61h1.18c1.81,0,1.68-7.01,6.71-8.16c0-4.31-3-8.57-6.71-8.57
	C81.21,15.93,77.52,19.23,77.52,23.32"/>
<path class="st1" d="M24.27,27.6c4.18,0.34,8.74,4.17,9.08,8.17c2.82-0.05,5.91-3.48,5.91-6.22v-2.34c0-4.04-3.36-7.41-7.49-7.41
	C27.33,19.81,24.61,23.6,24.27,27.6"/>
<path class="st1" d="M102.46,66.15c-2.21,0.49-3.92,1.96-6.37,1.96h-2.76l-0.95,8.55L92.52,79l0.45,3.5l3.12,0.01
	c3.07,0,3.71-0.75,5.42-1.96L102.46,66.15z"/>
<path class="st1" d="M95.28,44.73v1.17c-2.7,0.22-8.68,3.83-8.68,7.03v1.94c0,1.2,1.16,1.54,2.38,1.54h0.39
	c1.58,0,3.03-2.36,3.15-3.88c8.03-0.17,6.98-6.56,10.27-7.4v-3.5C100.39,43.22,99.55,44.73,95.28,44.73"/>
<path class="st1" d="M42.02,27.6c-0.38,4.68-3.77,10.15-8.27,10.52v1.55c0,2.08-1.98,5.85-1.98,5.85c0,1.65,2.33,5.69,3.95,5.83
	c-0.71-1.3-1.58-2.72-1.58-4.67v-1.95c0-7.86,15-15.57,15-18.29v-0.39c0-0.64-0.25-1.17-0.8-1.17C47.47,24.87,43.78,27.2,42.02,27.6
	"/>
<path class="st1" d="M95.69,65.75c2.55,0,8.68-3.06,8.68-5.05v-1.94c0-1.05-0.19-1.09-0.4-1.96c-6.19,4.1-2.49,3.01-11.45,5.06v3.89
	H95.69z"/>
<path class="st1" d="M69.65,38.9c2.72-1.82,4.29-3.89,9.08-3.89h0.39c4.37,0,5.92,2.73,8.4,4.25l-1.3-4.64h-2.76
	c-1.63,0-3.87-1.68-5.13-2.34C75.64,34.04,69.96,35.1,69.65,38.9"/>
<polygon class="st1" points="66.88,53.67 66.88,51.35 66.92,51.79 54.28,52.79 52.68,54.2 "/>
<polygon class="st1" points="107.53,43.18 107.53,40.06 105.53,37.1 105.15,37.33 105.07,41.24 105.54,44.73 106.63,44.69 "/>
<polygon class="st1" points="26.72,49.17 26.65,49.74 31.69,51.52 32,51.24 30.14,47.36 "/>
<rect x="120.86" y="13.08" class="st2" width="25.82" height="85.35"/>
<path class="st2" d="M207.58,38.68c-1.06-1.8-2.19-3.23-3.37-4.3c-1.42-1.23-2.77-2-4.06-2.31c-1.3-0.3-2.35-0.47-3.12-0.47
	l-0.84-0.13c-4.24,0.08-7.57,2.53-9.95,7.34c-2.4,4.81-3.69,10.13-3.85,15.95v1.45c0.08,5.74,1.34,11,3.77,15.82
	c2.44,4.81,6.06,7.22,10.86,7.22c0.71,0,1.41-0.08,2.12-0.21c0.69-0.14,1.45-0.35,2.24-0.59c1.96-0.71,3.79-2.08,5.47-4.1
	c1.69-2.03,2.86-5.12,3.48-9.28l24.89-0.13c-0.4,9.53-4.16,17.8-11.25,24.82c-7.14,7.01-15.84,10.51-26.13,10.51h-1.65
	c-12.48-0.44-22.1-4.41-28.83-11.92c-6.72-7.49-10.09-18.04-10.09-31.62c0-16.32,3.74-28.11,11.21-35.41
	c7.47-7.26,16.44-10.91,26.88-10.91c10.61,0,18.62,2.14,24,6.42c5.38,4.29,9.18,9.02,11.39,14.22c1.08,2.65,1.89,5.27,2.41,7.88
	c0.5,2.59,0.84,4.87,1,6.81l-23.83-0.14C209.57,42.8,208.64,40.5,207.58,38.68"/>
<path class="st2" d="M282.22,33.06c-1.77-1.23-3.68-2.03-5.71-2.38c-0.47-0.1-0.91-0.16-1.3-0.2c-0.39-0.05-0.79-0.07-1.18-0.07
	c-1.41,0-2.71,0.25-3.89,0.73c-1.18,0.49-1.93,1.26-2.24,2.32v0.26l-0.13,0.4v0.26l-0.24,0.65c0,2.22,1.47,4.01,4.41,5.36
	c2.95,1.39,6.25,2.46,9.85,3.25l0.47,0.2l0.48,0.06c8.73,1.85,15.65,4.81,20.76,8.87c5.11,4.06,7.85,10.1,8.26,18.13v1.19
	c0,9.36-3.53,16.54-10.57,21.58c-7.03,5.03-14.82,7.53-23.4,7.53c-9.12,0-17.33-2.25-24.65-6.74c-7.31-4.51-10.97-12.05-10.97-22.64
	l24.05-0.13c0.72,3.17,2,5.42,3.9,6.76c1.88,1.32,3.89,2.15,6.01,2.51c0.39,0,0.8,0.03,1.23,0.05c0.44,0.06,0.85,0.08,1.24,0.08
	c2.29,0,4.15-0.64,5.6-1.92c1.47-1.27,2.27-2.66,2.43-4.16v-0.4l-0.07-0.8l-0.16-0.64c-0.24-0.89-0.73-1.73-1.48-2.52
	c-0.75-0.79-1.75-1.41-3.01-1.86c-0.63-0.18-1.27-0.34-1.89-0.53c-0.62-0.18-1.25-0.36-1.88-0.53c-0.55-0.18-1.11-0.34-1.65-0.47
	c-0.55-0.12-1.15-0.27-1.77-0.45c-7.78-2.21-14.96-5.14-21.52-8.8c-6.57-3.67-9.84-10.13-9.84-19.39c0-0.43,0.02-0.91,0.05-1.39
	c0.04-0.48,0.1-0.94,0.18-1.39c0-0.44,0.02-0.86,0.06-1.26c0.04-0.41,0.09-0.77,0.17-1.13c0.72-6.09,3.52-11.45,8.43-16.07
	c4.92-4.64,11.9-6.95,20.93-6.95l2.96-0.14c0.46,0.09,0.97,0.14,1.47,0.14c0.51,0,1,0.04,1.48,0.14c6.99,0.36,13.47,2.42,19.45,6.22
	c5.99,3.79,9.55,10.89,10.73,21.3l-24.05-0.12C284.99,35.93,283.98,34.31,282.22,33.06"/>
<path class="st2" d="M343.71,78.06h14.03c2.44,0.08,4.25-0.51,5.43-1.79c1.18-1.28,1.8-2.67,1.89-4.17V71.7l-0.06-0.8
	c-0.03-0.26-0.09-0.57-0.18-0.92c-0.31-1.5-1.08-2.87-2.3-4.1c-1.22-1.23-2.81-1.86-4.78-1.86h-14.03V78.06z M343.71,47.49h9.9
	c2.52,0.07,4.51-0.47,5.96-1.65c1.45-1.19,2.3-2.55,2.53-4.03l0.12-0.47v-0.94l-0.12-0.46c-0.24-1.4-1-2.68-2.3-3.83
	c-1.3-1.15-3.08-1.73-5.36-1.73l-10.73-0.13V47.49z M356.09,13.08c9.19,0.07,16.14,2.38,20.82,6.89c4.67,4.49,7.36,9.39,8.07,14.68
	c0.07,0.52,0.13,1.03,0.17,1.52c0.03,0.49,0.06,1,0.06,1.52v0.67c-0.08,3.18-0.93,6.23-2.54,9.15c-1.63,2.92-3.83,5.08-6.66,6.49
	c4.39,1.5,7.76,4.23,10.07,8.16c2.32,3.94,3.48,8.11,3.48,12.54v1.05c-0.31,5.76-2.71,11.02-7.19,15.79
	c-4.49,4.77-11.37,7.18-20.64,7.18L318,98.57V13.08H356.09z"/>
<path class="st2" d="M57.48,121.14c0,0.99,0.23,1.76,0.68,2.28c0.45,0.53,1.02,0.8,1.69,0.8c0.55,0,1.02-0.18,1.42-0.49
	c0.58-0.46,1.08-1.22,1.51-2.28c0.42-1.06,0.63-2.13,0.63-3.21c0-1.02-0.24-1.78-0.67-2.33c-0.46-0.54-0.99-0.81-1.64-0.81
	c-0.51,0-1.05,0.21-1.57,0.63c-0.53,0.42-1,1.15-1.41,2.17C57.69,118.93,57.48,120.02,57.48,121.14 M53.81,130.16l3.15-16.43h1.73
	l-0.32,1.67c0.66-0.76,1.24-1.26,1.73-1.54c0.49-0.27,1.03-0.4,1.58-0.4c1,0,1.85,0.4,2.54,1.23c0.69,0.8,1.05,2.01,1.05,3.55
	c0,1.49-0.29,2.82-0.85,4.05c-0.57,1.22-1.3,2.15-2.22,2.81c-0.72,0.52-1.47,0.77-2.24,0.77c-1.31,0-2.32-0.72-3.03-2.18l-1.24,6.47
	H53.81z"/>
<path class="st2" d="M66.43,125.61l2.27-11.87h1.64l-0.46,2.43c1.08-1.8,2.17-2.7,3.27-2.7c0.38,0,0.83,0.15,1.38,0.44l-0.77,1.88
	c-0.32-0.26-0.66-0.39-1.02-0.39c-0.68,0-1.36,0.4-2.04,1.21c-0.68,0.8-1.21,2.21-1.6,4.23l-0.92,4.77H66.43z"/>
<path class="st2" d="M75.59,120.9c0,1.12,0.26,1.97,0.75,2.55c0.5,0.57,1.12,0.86,1.87,0.86c0.6,0,1.2-0.21,1.78-0.64
	c0.59-0.43,1.12-1.13,1.56-2.13c0.43-0.99,0.65-2.01,0.65-3.06c0-1.13-0.24-1.98-0.73-2.57c-0.52-0.59-1.13-0.88-1.87-0.88
	c-0.64,0-1.27,0.21-1.87,0.63c-0.6,0.42-1.11,1.13-1.52,2.11C75.79,118.75,75.59,119.79,75.59,120.9 M73.74,121.1
	c0-2.13,0.54-3.94,1.61-5.42c1.07-1.47,2.51-2.21,4.32-2.21c1.27,0,2.31,0.43,3.15,1.3c0.82,0.86,1.22,2.11,1.22,3.71
	c0,1.47-0.28,2.79-0.84,3.94c-0.56,1.15-1.29,2.02-2.19,2.6c-0.88,0.57-1.83,0.86-2.81,0.86c-1.3,0-2.37-0.43-3.21-1.27
	C74.15,123.74,73.74,122.58,73.74,121.1"/>
<path class="st2" d="M85.06,125.61l2.27-11.87h1.86l-0.37,1.95c0.72-0.87,1.35-1.46,1.9-1.78c0.54-0.29,1.12-0.45,1.74-0.45
	c0.67,0,1.25,0.2,1.72,0.57c0.45,0.38,0.77,0.93,0.92,1.65c0.55-0.73,1.14-1.3,1.75-1.66c0.61-0.37,1.26-0.56,1.93-0.56
	c0.86,0,1.54,0.24,2.01,0.69c0.49,0.45,0.72,1.13,0.72,2c0,0.37-0.08,0.98-0.26,1.83l-1.5,7.63h-1.87l1.56-7.85
	c0.15-0.64,0.2-1.1,0.2-1.38c0-0.41-0.11-0.71-0.35-0.93c-0.24-0.2-0.55-0.31-0.94-0.31c-0.52,0-1.05,0.18-1.61,0.51
	c-0.58,0.35-1.03,0.82-1.37,1.4c-0.34,0.59-0.65,1.52-0.91,2.8l-1.15,5.76h-1.86l1.6-8.01c0.11-0.55,0.16-0.95,0.16-1.17
	c0-0.41-0.1-0.72-0.34-0.95c-0.24-0.24-0.52-0.35-0.87-0.35c-0.84,0-1.62,0.37-2.36,1.13c-0.75,0.75-1.29,1.98-1.62,3.74l-1.1,5.61
	H85.06z"/>
<path class="st2" d="M104.77,120.9c0,1.12,0.24,1.97,0.76,2.55c0.49,0.57,1.11,0.86,1.86,0.86c0.6,0,1.19-0.21,1.77-0.64
	c0.6-0.43,1.12-1.13,1.56-2.13c0.44-0.99,0.66-2.01,0.66-3.06c0-1.13-0.24-1.98-0.74-2.57c-0.5-0.59-1.11-0.88-1.85-0.88
	c-0.64,0-1.28,0.21-1.88,0.63c-0.61,0.42-1.11,1.13-1.53,2.11C104.98,118.75,104.77,119.79,104.77,120.9 M102.91,121.1
	c0-2.13,0.52-3.94,1.62-5.42c1.07-1.47,2.51-2.21,4.32-2.21c1.28,0,2.32,0.43,3.14,1.3c0.83,0.86,1.24,2.11,1.24,3.71
	c0,1.47-0.29,2.79-0.84,3.94c-0.56,1.15-1.29,2.02-2.2,2.6c-0.89,0.57-1.82,0.86-2.82,0.86c-1.3,0-2.35-0.43-3.2-1.27
	C103.33,123.74,102.91,122.58,102.91,121.1"/>
<path class="st2" d="M118.39,123.96l-0.31,1.66c-0.42,0.12-0.85,0.2-1.24,0.2c-0.69,0-1.21-0.18-1.6-0.51
	c-0.39-0.32-0.61-0.77-0.61-1.32c0-0.25,0.11-0.85,0.29-1.81l1.3-6.87h-1.46l0.3-1.57h1.47l0.53-2.85l2.15-1.4l-0.83,4.25h1.84
	l-0.32,1.57h-1.8l-1.25,6.54c-0.16,0.86-0.25,1.35-0.25,1.5l0.2,0.57l0.58,0.18C117.75,124.1,118.1,124.05,118.39,123.96"/>
<path class="st2" d="M122.73,111.5l0.44-2.29h1.86l-0.43,2.29H122.73z M120.03,125.61l2.28-11.87h1.86l-2.26,11.87H120.03z"/>
<path class="st2" d="M124.75,125.61l2.28-11.87h1.69l-0.38,2.07c0.8-0.88,1.5-1.49,2.16-1.82c0.64-0.35,1.27-0.52,1.87-0.52
	c0.85,0,1.54,0.26,2.07,0.76c0.52,0.5,0.79,1.23,0.79,2.17c0,0.41-0.09,1.09-0.29,2.03l-1.46,7.18h-1.87l1.53-7.53
	c0.17-0.73,0.23-1.29,0.23-1.63c0-0.41-0.13-0.73-0.4-0.96c-0.27-0.24-0.62-0.36-1.08-0.36c-0.95,0-1.79,0.36-2.55,1.11
	c-0.75,0.73-1.3,2.01-1.66,3.84l-1.07,5.53H124.75z"/>
<path class="st2" d="M138.64,120.34c0,0.89,0.1,1.58,0.31,2.08c0.21,0.51,0.5,0.86,0.87,1.14c0.36,0.25,0.73,0.38,1.14,0.38
	c0.55,0,1.11-0.2,1.68-0.61c0.56-0.4,1.05-1.1,1.45-2.07c0.41-0.97,0.62-1.95,0.62-2.96c0-1-0.26-1.78-0.74-2.34
	c-0.5-0.57-1.1-0.86-1.79-0.86c-0.56,0-1.13,0.23-1.69,0.7c-0.55,0.45-0.99,1.15-1.35,2.09
	C138.83,118.84,138.64,119.64,138.64,120.34 M136.34,126.68l1.89,0.19v0.26c0,0.53,0.15,0.93,0.48,1.18c0.34,0.26,0.83,0.4,1.51,0.4
	c1.07,0,1.87-0.3,2.36-0.89c0.35-0.43,0.66-1.38,0.95-2.85l0.16-0.97c-0.96,1.07-1.97,1.61-3.05,1.61c-1.07,0-1.98-0.43-2.73-1.3
	c-0.76-0.87-1.13-2.13-1.13-3.79c0-1.29,0.29-2.5,0.86-3.64c0.55-1.15,1.24-2.01,2.04-2.57c0.8-0.57,1.61-0.84,2.44-0.84
	c1.38,0,2.46,0.74,3.22,2.21l0.34-1.95h1.68l-1.97,11.46c-0.32,1.74-0.82,2.98-1.51,3.74c-0.84,0.95-2,1.43-3.46,1.43
	c-1.37,0-2.4-0.26-3.09-0.82c-0.69-0.55-1.05-1.3-1.05-2.25L136.34,126.68"/>
<path class="st2" d="M156.17,120.34c0,0.89,0.1,1.58,0.31,2.08c0.21,0.51,0.51,0.86,0.86,1.14c0.37,0.25,0.75,0.38,1.16,0.38
	c0.55,0,1.1-0.2,1.67-0.61c0.56-0.4,1.04-1.1,1.46-2.07c0.41-0.97,0.62-1.95,0.62-2.96c0-1-0.26-1.78-0.75-2.34
	c-0.49-0.57-1.09-0.86-1.78-0.86c-0.57,0-1.13,0.23-1.69,0.7c-0.53,0.45-1,1.15-1.34,2.09
	C156.33,118.84,156.17,119.64,156.17,120.34 M153.87,126.68l1.87,0.19v0.26c0,0.53,0.16,0.93,0.49,1.18c0.33,0.26,0.83,0.4,1.52,0.4
	c1.07,0,1.87-0.3,2.35-0.89c0.35-0.43,0.67-1.38,0.95-2.85l0.18-0.97c-0.96,1.07-1.98,1.61-3.07,1.61c-1.08,0-1.97-0.43-2.73-1.3
	c-0.75-0.87-1.13-2.13-1.13-3.79c0-1.29,0.27-2.5,0.84-3.64c0.57-1.15,1.26-2.01,2.06-2.57c0.8-0.57,1.61-0.84,2.43-0.84
	c1.39,0,2.47,0.74,3.23,2.21l0.35-1.95h1.68l-1.98,11.46c-0.34,1.74-0.83,2.98-1.51,3.74c-0.85,0.95-2.01,1.43-3.46,1.43
	c-1.38,0-2.41-0.26-3.11-0.82c-0.67-0.55-1.02-1.3-1.02-2.25L153.87,126.68"/>
<path class="st2" d="M167.84,120.9c0,1.12,0.25,1.97,0.75,2.55c0.51,0.57,1.12,0.86,1.88,0.86c0.58,0,1.18-0.21,1.78-0.64
	c0.58-0.43,1.1-1.13,1.55-2.13c0.44-0.99,0.66-2.01,0.66-3.06c0-1.13-0.26-1.98-0.74-2.57c-0.52-0.59-1.13-0.88-1.86-0.88
	c-0.63,0-1.27,0.21-1.87,0.63c-0.61,0.42-1.12,1.13-1.53,2.11C168.04,118.75,167.84,119.79,167.84,120.9 M165.98,121.1
	c0-2.13,0.53-3.94,1.61-5.42c1.07-1.47,2.51-2.21,4.32-2.21c1.27,0,2.31,0.43,3.13,1.3c0.83,0.86,1.24,2.11,1.24,3.71
	c0,1.47-0.27,2.79-0.84,3.94c-0.57,1.15-1.3,2.02-2.19,2.6c-0.9,0.57-1.84,0.86-2.83,0.86c-1.29,0-2.36-0.43-3.2-1.27
	C166.39,123.74,165.98,122.58,165.98,121.1"/>
<path class="st2" d="M180.07,125.61l-1.79-11.87h1.81l0.93,6.54c0.1,0.74,0.23,1.91,0.37,3.5c0.37-0.85,0.82-1.82,1.38-2.9
	l3.63-7.14h1.96l-6.24,11.87H180.07z"/>
<path class="st2" d="M190.42,118.63h6.12v-0.41c0-1.05-0.23-1.86-0.7-2.39c-0.46-0.52-1.06-0.8-1.79-0.8c-0.79,0-1.49,0.3-2.17,0.89
	C191.23,116.53,190.74,117.43,190.42,118.63 M195.82,121.57l1.81,0.2c-0.29,1.15-0.98,2.16-2.09,3.01c-0.9,0.74-1.91,1.09-3.03,1.09
	c-0.79,0-1.51-0.18-2.17-0.57c-0.65-0.38-1.16-0.95-1.55-1.73c-0.39-0.76-0.58-1.67-0.58-2.73c0-1.38,0.29-2.69,0.88-3.9
	c0.6-1.2,1.31-2.08,2.16-2.63c0.86-0.58,1.77-0.84,2.77-0.84c1.26,0,2.29,0.43,3.08,1.28c0.8,0.86,1.2,2.08,1.2,3.64
	c0,0.59-0.04,1.17-0.14,1.79h-8.04l-0.03,0.63c0,1.12,0.23,1.97,0.71,2.55c0.48,0.57,1.05,0.86,1.72,0.86
	c0.63,0,1.26-0.23,1.87-0.69C195.01,123.07,195.48,122.42,195.82,121.57"/>
<path class="st2" d="M199.52,125.61l2.28-11.87h1.65l-0.47,2.43c1.1-1.8,2.17-2.7,3.29-2.7c0.36,0,0.83,0.15,1.37,0.44l-0.77,1.88
	c-0.32-0.26-0.66-0.39-1.02-0.39c-0.7,0-1.37,0.4-2.03,1.21c-0.68,0.8-1.21,2.21-1.6,4.23l-0.94,4.77H199.52z"/>
<path class="st2" d="M206.49,125.61l2.27-11.87h1.7l-0.39,2.07c0.77-0.88,1.5-1.49,2.16-1.82c0.64-0.35,1.27-0.52,1.89-0.52
	c0.84,0,1.53,0.26,2.05,0.76c0.53,0.5,0.8,1.23,0.8,2.17c0,0.41-0.1,1.09-0.3,2.03l-1.43,7.18h-1.87l1.52-7.53
	c0.15-0.73,0.23-1.29,0.23-1.63c0-0.41-0.14-0.73-0.4-0.96c-0.27-0.24-0.61-0.36-1.08-0.36c-0.95,0-1.8,0.36-2.55,1.11
	c-0.75,0.73-1.32,2.01-1.67,3.84l-1.06,5.53H206.49z"/>
<path class="st2" d="M220.81,111.5l0.44-2.29h1.86l-0.45,2.29H220.81z M218.11,125.61l2.27-11.87h1.86l-2.28,11.87H218.11z"/>
<path class="st2" d="M222.85,125.61l2.26-11.87h1.7l-0.4,2.07c0.8-0.88,1.51-1.49,2.16-1.82c0.65-0.35,1.28-0.52,1.88-0.52
	c0.85,0,1.53,0.26,2.06,0.76c0.55,0.5,0.8,1.23,0.8,2.17c0,0.41-0.1,1.09-0.29,2.03l-1.45,7.18h-1.87l1.54-7.53
	c0.16-0.73,0.22-1.29,0.22-1.63c0-0.41-0.13-0.73-0.4-0.96c-0.26-0.24-0.63-0.36-1.08-0.36c-0.93,0-1.79,0.36-2.54,1.11
	c-0.75,0.73-1.31,2.01-1.66,3.84l-1.07,5.53H222.85z"/>
<path class="st2" d="M236.74,120.34c0,0.89,0.1,1.58,0.31,2.08c0.21,0.51,0.5,0.86,0.85,1.14c0.36,0.25,0.75,0.38,1.16,0.38
	c0.55,0,1.11-0.2,1.67-0.61c0.56-0.4,1.05-1.1,1.45-2.07c0.42-0.97,0.62-1.95,0.62-2.96c0-1-0.25-1.78-0.74-2.34
	c-0.5-0.57-1.1-0.86-1.79-0.86c-0.57,0-1.12,0.23-1.69,0.7c-0.54,0.45-1,1.15-1.33,2.09C236.9,118.84,236.74,119.64,236.74,120.34
	 M234.44,126.68l1.87,0.19v0.26c0,0.53,0.15,0.93,0.48,1.18c0.33,0.26,0.83,0.4,1.52,0.4c1.08,0,1.86-0.3,2.37-0.89
	c0.34-0.43,0.66-1.38,0.95-2.85l0.16-0.97c-0.95,1.07-1.98,1.61-3.06,1.61c-1.06,0-1.98-0.43-2.72-1.3
	c-0.76-0.87-1.13-2.13-1.13-3.79c0-1.29,0.29-2.5,0.85-3.64c0.57-1.15,1.26-2.01,2.05-2.57c0.8-0.57,1.62-0.84,2.43-0.84
	c1.39,0,2.47,0.74,3.22,2.21l0.34-1.95h1.68l-1.97,11.46c-0.32,1.74-0.83,2.98-1.5,3.74c-0.85,0.95-2.01,1.43-3.47,1.43
	c-1.37,0-2.42-0.26-3.09-0.82c-0.68-0.55-1.02-1.3-1.02-2.25L234.44,126.68"/>
<path class="st2" d="M254.63,118.63h6.12v-0.41c0-1.05-0.24-1.86-0.71-2.39c-0.47-0.52-1.05-0.8-1.78-0.8
	c-0.79,0-1.52,0.3-2.16,0.89C255.45,116.53,254.96,117.43,254.63,118.63 M260.04,121.57l1.81,0.2c-0.3,1.15-0.98,2.16-2.09,3.01
	c-0.9,0.74-1.91,1.09-3.04,1.09c-0.8,0-1.51-0.18-2.17-0.57c-0.65-0.38-1.17-0.95-1.56-1.73c-0.38-0.76-0.57-1.67-0.57-2.73
	c0-1.38,0.31-2.69,0.89-3.9c0.6-1.2,1.3-2.08,2.15-2.63c0.86-0.58,1.77-0.84,2.77-0.84c1.26,0,2.29,0.43,3.08,1.28
	c0.8,0.86,1.19,2.08,1.19,3.64c0,0.59-0.03,1.17-0.13,1.79h-8.04l-0.05,0.63c0,1.12,0.24,1.97,0.72,2.55
	c0.49,0.57,1.05,0.86,1.73,0.86c0.64,0,1.26-0.23,1.88-0.69C259.23,123.07,259.7,122.42,260.04,121.57"/>
<path class="st2" d="M262.99,125.61l4.74-6.03l-2.71-5.85h2.04l0.92,2.13c0.34,0.78,0.66,1.55,0.92,2.26l3.13-4.39h2.29l-4.57,6.02
	l2.73,5.85h-2.05l-1.08-2.41c-0.25-0.54-0.51-1.2-0.81-1.92l-3.23,4.33H262.99z"/>
<path class="st2" d="M281.76,121.28l1.84,0.22c-0.47,1.48-1.15,2.59-2.01,3.31c-0.87,0.71-1.84,1.07-2.9,1.07
	c-1.16,0-2.1-0.4-2.86-1.2c-0.75-0.83-1.12-2.01-1.12-3.54c0-1.51,0.27-2.89,0.83-4.12c0.56-1.25,1.26-2.15,2.11-2.7
	c0.85-0.57,1.78-0.84,2.82-0.84c1.11,0,2.02,0.34,2.74,1.05c0.7,0.71,1.05,1.67,1.04,2.89l-1.83,0.14c0-0.79-0.2-1.37-0.62-1.79
	c-0.39-0.42-0.88-0.62-1.49-0.62c-0.65,0-1.25,0.2-1.78,0.59c-0.52,0.39-0.99,1.11-1.37,2.16c-0.39,1.05-0.6,2.23-0.6,3.5
	c0,0.95,0.23,1.69,0.63,2.17c0.42,0.51,0.93,0.75,1.52,0.75c0.61,0,1.19-0.24,1.73-0.75C281,123.07,281.45,122.3,281.76,121.28"/>
<path class="st2" d="M287.31,118.63h6.14v-0.41c0-1.05-0.24-1.86-0.71-2.39c-0.46-0.52-1.06-0.8-1.79-0.8
	c-0.79,0-1.51,0.3-2.17,0.89C288.13,116.53,287.64,117.43,287.31,118.63 M292.72,121.57l1.82,0.2c-0.29,1.15-0.99,2.16-2.09,3.01
	c-0.92,0.74-1.92,1.09-3.03,1.09c-0.82,0-1.53-0.18-2.18-0.57c-0.65-0.38-1.17-0.95-1.56-1.73c-0.38-0.76-0.57-1.67-0.57-2.73
	c0-1.38,0.3-2.69,0.89-3.9c0.58-1.2,1.31-2.08,2.16-2.63c0.85-0.58,1.78-0.84,2.76-0.84c1.26,0,2.3,0.43,3.09,1.28
	c0.79,0.86,1.19,2.08,1.19,3.64c0,0.59-0.05,1.17-0.13,1.79h-8.04l-0.05,0.63c0,1.12,0.24,1.97,0.71,2.55
	c0.49,0.57,1.05,0.86,1.74,0.86c0.62,0,1.25-0.23,1.87-0.69C291.92,123.07,292.38,122.42,292.72,121.57"/>
<polygon class="st2" points="296.27,125.61 299.41,109.22 301.27,109.22 298.14,125.61 "/>
<polygon class="st2" points="300.93,125.61 304.08,109.22 305.94,109.22 302.8,125.61 "/>
<path class="st2" d="M308.32,118.63h6.14v-0.41c0-1.05-0.25-1.86-0.7-2.39c-0.48-0.52-1.08-0.8-1.8-0.8c-0.79,0-1.5,0.3-2.16,0.89
	C309.13,116.53,308.65,117.43,308.32,118.63 M313.74,121.57l1.81,0.2c-0.29,1.15-0.97,2.16-2.08,3.01
	c-0.92,0.74-1.92,1.09-3.05,1.09c-0.79,0-1.52-0.18-2.16-0.57c-0.66-0.38-1.17-0.95-1.55-1.73c-0.39-0.76-0.58-1.67-0.58-2.73
	c0-1.38,0.3-2.69,0.89-3.9c0.6-1.2,1.31-2.08,2.16-2.63c0.85-0.58,1.76-0.84,2.76-0.84c1.26,0,2.28,0.43,3.09,1.28
	c0.8,0.86,1.2,2.08,1.2,3.64c0,0.59-0.05,1.17-0.15,1.79h-8.03l-0.05,0.63c0,1.12,0.24,1.97,0.73,2.55
	c0.48,0.57,1.05,0.86,1.72,0.86c0.63,0,1.27-0.23,1.88-0.69C312.92,123.07,313.39,122.42,313.74,121.57"/>
<path class="st2" d="M317.4,125.61l2.29-11.87h1.7l-0.4,2.07c0.79-0.88,1.52-1.49,2.16-1.82c0.65-0.35,1.29-0.52,1.89-0.52
	c0.85,0,1.54,0.26,2.07,0.76c0.52,0.5,0.8,1.23,0.8,2.17c0,0.41-0.11,1.09-0.3,2.03l-1.44,7.18h-1.87l1.52-7.53
	c0.15-0.73,0.23-1.29,0.23-1.63c0-0.41-0.13-0.73-0.4-0.96c-0.26-0.24-0.62-0.36-1.08-0.36c-0.95,0-1.79,0.36-2.55,1.11
	c-0.76,0.73-1.31,2.01-1.67,3.84l-1.06,5.53H317.4z"/>
<path class="st2" d="M336.63,121.28l1.84,0.22c-0.46,1.48-1.12,2.59-2,3.31c-0.86,0.71-1.83,1.07-2.9,1.07c-1.15,0-2.1-0.4-2.85-1.2
	c-0.76-0.83-1.13-2.01-1.13-3.54c0-1.51,0.27-2.89,0.83-4.12c0.55-1.25,1.25-2.15,2.11-2.7c0.84-0.57,1.78-0.84,2.82-0.84
	c1.12,0,2.02,0.34,2.74,1.05c0.7,0.71,1.06,1.67,1.04,2.89l-1.82,0.14c0-0.79-0.21-1.37-0.61-1.79c-0.41-0.42-0.9-0.62-1.5-0.62
	c-0.66,0-1.25,0.2-1.78,0.59c-0.53,0.39-0.99,1.11-1.39,2.16c-0.37,1.05-0.58,2.23-0.58,3.5c0,0.95,0.22,1.69,0.63,2.17
	c0.42,0.51,0.94,0.75,1.52,0.75c0.6,0,1.18-0.24,1.74-0.75C335.88,123.07,336.32,122.3,336.63,121.28"/>
<path class="st2" d="M342.18,118.63h6.14v-0.41c0-1.05-0.23-1.86-0.71-2.39c-0.47-0.52-1.05-0.8-1.8-0.8c-0.78,0-1.49,0.3-2.15,0.89
	C343.01,116.53,342.52,117.43,342.18,118.63 M347.61,121.57l1.81,0.2c-0.29,1.15-0.98,2.16-2.08,3.01
	c-0.91,0.74-1.92,1.09-3.04,1.09c-0.79,0-1.52-0.18-2.17-0.57c-0.66-0.38-1.17-0.95-1.55-1.73c-0.4-0.76-0.58-1.67-0.58-2.73
	c0-1.38,0.3-2.69,0.88-3.9c0.59-1.2,1.32-2.08,2.16-2.63c0.84-0.58,1.77-0.84,2.77-0.84c1.26,0,2.29,0.43,3.07,1.28
	c0.8,0.86,1.18,2.08,1.18,3.64c0,0.59-0.02,1.17-0.12,1.79h-8.04l-0.04,0.63c0,1.12,0.24,1.97,0.71,2.55
	c0.48,0.57,1.06,0.86,1.72,0.86c0.64,0,1.27-0.23,1.88-0.69C346.79,123.07,347.27,122.42,347.61,121.57"/>
</svg>
